<svg width="31px" height="35px" viewBox="0 0 31 35" version="1.1" xmlns="http://www.w3.org/2000/svg" xmlns:xlink="http://www.w3.org/1999/xlink">
    <!-- Generator: Sketch 63.1 (92452) - https://sketch.com -->
    <title>discord</title>
    <desc>Created with Sketch.</desc>
    <g id="Page-1" stroke="none" stroke-width="1" fill="none" fill-rule="evenodd">
        <g id="Homepage-Desktop" transform="translate(-923.000000, -4383.000000)" fill="#FFFFFF" fill-rule="nonzero">
            <g id="Footer-Content" transform="translate(399.000000, 4275.000000)">
                <g id="Contact" transform="translate(524.000000, 17.000000)">
                    <g id="Contact-Logos" transform="translate(0.000000, 91.000000)">
                        <g id="discord">
                            <path d="M20.2222222,16.7391304 C20.2222222,17.8541585 19.441585,18.7681159 18.4527778,18.7681159 C17.4813181,18.7681159 16.6833333,17.8541585 16.6833333,16.7391304 C16.6833333,15.6241024 17.4639706,14.7101449 18.4527778,14.7101449 C19.441585,14.7101449 20.2222222,15.6241024 20.2222222,16.7391304 Z M11.8804168,14.7101449 C10.8916871,14.7101449 10.1111111,15.6241024 10.1111111,16.7391304 C10.1111111,17.8541585 10.9090333,18.7681159 11.8804168,18.7681159 C12.8691464,18.7681159 13.6497224,17.8541585 13.6497224,16.7391304 C13.6670686,15.6241024 12.8691464,14.7101449 11.8804168,14.7101449 Z M30.3333333,3.605 L30.3333333,35 C25.9665521,31.1039258 27.3631042,32.3935938 22.2906667,27.6325 L23.2093333,30.87 L3.55333333,30.87 C1.59466667,30.87 0,29.26 0,27.265 L0,3.605 C0,1.61 1.59466667,0 3.55333333,0 L26.78,0 C28.7386667,0 30.3333333,1.61 30.3333333,3.605 Z M25.2777778,20.1642775 C25.2777778,14.5254444 22.7846271,9.95483748 22.7846271,9.95483748 C20.2914764,8.06355185 17.9195205,8.11594203 17.9195205,8.11594203 L17.6771309,8.39627802 C20.6204338,9.30689703 21.988204,10.6202898 21.988204,10.6202898 C17.8754927,8.34039042 13.0444046,8.33997999 9.05498478,10.1124446 C8.41438356,10.410147 8.03348554,10.6202898 8.03348554,10.6202898 C8.03348554,10.6202898 9.47050989,9.23684942 12.5869482,8.32623041 L12.4138128,8.11594203 C12.4138128,8.11594203 10.0418569,8.06355185 7.54870624,9.95483748 C7.54870624,9.95483748 5.05555556,14.5254444 5.05555556,20.1642775 C5.05555556,20.1642775 6.50989346,22.7035036 10.3361872,22.826087 C10.3361872,22.826087 10.9767884,22.0380513 11.4961948,21.3725989 C9.29737443,20.7071466 8.4663242,19.3061942 8.4663242,19.3061942 C8.7210227,19.4865121 9.14101146,19.720255 9.1761796,19.7439918 C12.0985169,21.3992772 16.2495749,21.941599 19.9798326,20.3569085 C20.5858067,20.1292537 21.261035,19.7965276 21.9708904,19.3237061 C21.9708904,19.3237061 21.1052131,20.7596823 18.8371385,21.4076227 C19.3565449,22.0730751 19.9798326,22.826087 19.9798326,22.826087 C23.8061263,22.7035036 25.2777778,20.1642775 25.2777778,20.1642775 L25.2777778,20.1642775 Z" id="Shape"></path>
                        </g>
                    </g>
                </g>
            </g>
        </g>
    </g>
</svg>
