<svg width="35px" height="35px" viewBox="0 0 35 35" version="1.1" xmlns="http://www.w3.org/2000/svg" xmlns:xlink="http://www.w3.org/1999/xlink">
    <!-- Generator: Sketch 63.1 (92452) - https://sketch.com -->
    <title>Facebook-black</title>
    <desc>Created with Sketch.</desc>
    <g id="Page-1" stroke="none" stroke-width="1" fill="none" fill-rule="evenodd">
        <g id="Homepage-Desktop-(Full)" transform="translate(-982.000000, -4383.000000)" fill="#FFFFFF">
            <g id="Footer-Content" transform="translate(399.000000, 4275.000000)">
                <g id="Contact" transform="translate(524.000000, 17.000000)">
                    <g id="Contact-Logos" transform="translate(0.000000, 91.000000)">
                        <path d="M77.2272682,35 L60.883438,35 C59.8429392,35 59,34.1349105 59,33.0681479 L59,1.93171633 C59,0.864682076 59.8430716,0 60.883438,0 L91.2416944,0 C92.281796,0 93.125,0.864682076 93.125,1.93171633 L93.125,33.0681479 C93.125,34.1350463 92.2816636,35 91.2416944,35 L82.5457561,35 L82.5457561,21.4460711 L86.9814486,21.4460711 L87.6456307,16.1638645 L82.5457561,16.1638645 L82.5457561,12.7915094 C82.5457561,11.2621887 82.9598106,10.2200071 85.0980106,10.2200071 L87.8251823,10.2187848 L87.8251823,5.49433686 C87.3535283,5.42996442 85.7346508,5.28614499 83.8512128,5.28614499 C79.9192181,5.28614499 77.2272682,7.74777956 77.2272682,12.2683815 L77.2272682,16.1638645 L72.7801882,16.1638645 L72.7801882,21.4460711 L77.2272682,21.4460711 L77.2272682,35 L77.2272682,35 Z" id="Facebook"></path>
                    </g>
                </g>
            </g>
        </g>
    </g>
</svg>
