<svg width="39px" height="40px" viewBox="0 0 39 40" version="1.1" xmlns="http://www.w3.org/2000/svg" xmlns:xlink="http://www.w3.org/1999/xlink">
    <!-- Generator: Sketch 63.1 (92452) - https://sketch.com -->
    <title>Instagram</title>
    <desc>Created with Sketch.</desc>
    <g id="Page-1" stroke="none" stroke-width="1" fill="none" fill-rule="evenodd">
        <g id="Homepage-Desktop-(Full)" transform="translate(-1174.000000, -4383.000000)" fill="#FFFFFF">
            <g id="Footer-Content" transform="translate(399.000000, 4275.000000)">
                <g id="Contact" transform="translate(524.000000, 17.000000)">
                    <g id="Contact-Logos" transform="translate(0.000000, 91.000000)">
                        <path d="M272.503739,0.0015591017 C276.014508,0.00809455234 276.757069,0.0369277496 278.539825,0.12035543 C280.615373,0.217449553 282.032897,0.555572095 283.273241,1.05001379 C284.555538,1.56104803 285.643006,2.24491457 286.727146,3.35677327 C287.811208,4.46871136 288.477978,5.58406323 288.976314,6.89924004 C289.458317,8.1713874 289.787987,9.62525876 289.882653,11.7540256 C289.977552,13.8872382 290,14.5683261 290,20.0000397 C290,25.4316739 289.977552,26.1127618 289.882653,28.2459744 C289.787987,30.3747412 289.458317,31.8286126 288.976314,33.10076 C288.477978,34.4159368 287.811208,35.5312886 286.727146,36.6432267 C285.643006,37.7550854 284.555538,38.438952 283.273241,38.9500656 C282.032897,39.4444279 280.615373,39.7825504 278.539825,39.8796446 C276.558985,39.972342 275.862336,39.9976388 271.225732,39.9998378 L269.774335,39.9998378 C265.137664,39.9976388 264.441015,39.972342 262.460175,39.8796446 C260.384627,39.7825504 258.967103,39.4444279 257.726759,38.9500656 C256.444462,38.438952 255.356994,37.7550854 254.272854,36.6432267 C253.188792,35.5312886 252.522022,34.4159368 252.023763,33.10076 C251.541683,31.8286126 251.212013,30.3747412 251.117347,28.2459744 C251.035689,26.4104193 251.007675,25.6500178 251.001447,22.0131189 L251.001447,17.9869317 C251.007675,14.3499822 251.035689,13.5895807 251.117347,11.7540256 C251.212013,9.62525876 251.541683,8.1713874 252.023763,6.89924004 C252.522022,5.58406323 253.188792,4.46871136 254.272854,3.35677327 C255.356994,2.24491457 256.444462,1.56104803 257.726759,1.05001379 C258.967103,0.555572095 260.384627,0.217449553 262.460175,0.12035543 C264.242931,0.0369277496 264.985492,0.00809455234 268.49631,0.0015591017 Z M270.872911,3.60363438 L270.127161,3.60363438 C265.262347,3.60463755 264.626372,3.62634728 262.620327,3.72022126 C260.719096,3.8091382 259.686586,4.13495527 258.999458,4.40885121 C258.089248,4.77166408 257.439663,5.20505477 256.757334,5.90495811 C256.074928,6.60478206 255.652372,7.27102399 255.29863,8.20457247 C255.031581,8.90931861 254.71391,9.96830349 254.627216,11.9182837 C254.540102,13.8765659 254.516726,14.5618826 254.513831,18.9255017 L254.513831,21.0745619 C254.516726,25.4381174 254.540102,26.1234341 254.627216,28.0817163 C254.71391,30.0316965 255.031581,31.0906814 255.29863,31.7954275 C255.652372,32.728976 256.075006,33.3952179 256.757334,34.0950419 C257.439663,34.7949452 258.089248,35.2283359 258.999458,35.5911488 C259.686586,35.8650447 260.719096,36.1908618 262.620327,36.2797787 C264.475709,36.3666122 265.158888,36.3917001 269.101479,36.3957688 L271.89858,36.3957688 C275.841126,36.3917001 276.524361,36.3666122 278.379673,36.2797787 C280.280904,36.1908618 281.313414,35.8650447 282.000542,35.5911488 C282.910752,35.2283359 283.560337,34.7949452 284.242666,34.0950419 C284.925072,33.3952179 285.347628,32.728976 285.70137,31.7954275 C285.968419,31.0906814 286.28609,30.0316965 286.372784,28.0817163 C286.459898,26.1234341 286.483274,25.4381174 286.486169,21.0745619 L286.486169,18.9255017 C286.483274,14.5618826 286.459898,13.8765659 286.372784,11.9182837 C286.28609,9.96830349 285.968419,8.90931861 285.70137,8.20457247 C285.347628,7.27102399 284.925072,6.60478206 284.242666,5.90495811 C283.560337,5.20505477 282.910752,4.77166408 282.000542,4.40885121 C281.313414,4.13495527 280.280904,3.8091382 278.379673,3.72022126 C276.323477,3.62400043 275.706711,3.60359717 270.500039,3.60359717 Z M270.500039,9.72973617 C276.030343,9.72973617 280.513507,14.3278534 280.513507,20.0000397 C280.513507,25.6721466 276.030343,30.2702638 270.500039,30.2702638 C264.969657,30.2702638 260.486493,25.6721466 260.486493,20.0000397 C260.486493,14.3278534 264.969657,9.72973617 270.500039,9.72973617 Z M270.500039,13.3333333 C266.910132,13.3333333 264,16.3180845 264,20.0000397 C264,23.6819155 266.910132,26.6666667 270.500039,26.6666667 C274.089868,26.6666667 277,23.6819155 277,20.0000397 C277,16.3180845 274.089868,13.3333333 270.500039,13.3333333 Z M280.909126,6.92393037 C282.201486,6.92393037 283.249168,7.99847571 283.249168,9.32397324 C283.249168,10.6494708 282.201486,11.7239367 280.909126,11.7239367 C279.616843,11.7239367 278.569162,10.6494708 278.569162,9.32397324 C278.569162,7.99847571 279.616843,6.92393037 280.909126,6.92393037 Z" id="Instagram"></path>
                    </g>
                </g>
            </g>
        </g>
    </g>
</svg>
