
<svg width="40px" height="40px" viewBox="0 0 40 40" version="1.1" xmlns="http://www.w3.org/2000/svg" xmlns:xlink="http://www.w3.org/1999/xlink">
    <!-- Generator: Sketch 63.1 (92452) - https://sketch.com -->
    <title>times</title>
    <desc>Created with Sketch.</desc>
    <g id="Page-1" stroke="none" stroke-width="1" fill="none" fill-rule="evenodd">
        <g id="Slideout-Nav-Menu" transform="translate(-309.000000, -25.000000)" fill="#FFFFFF" fill-rule="nonzero">
            <g id="times" transform="translate(309.000000, 25.000000)">
                <path d="M27.5818182,20 L38.9534091,8.62840909 C40.3488636,7.23295455 40.3488636,4.97045455 38.9534091,3.57386364 L36.4261364,1.04659091 C35.0306818,-0.348863636 32.7681818,-0.348863636 31.3715909,1.04659091 L20,12.4181818 L8.62840909,1.04659091 C7.23295455,-0.348863636 4.97045455,-0.348863636 3.57386364,1.04659091 L1.04659091,3.57386364 C-0.348863636,4.96931818 -0.348863636,7.23181818 1.04659091,8.62840909 L12.4181818,20 L1.04659091,31.3715909 C-0.348863636,32.7670455 -0.348863636,35.0295455 1.04659091,36.4261364 L3.57386364,38.9534091 C4.96931818,40.3488636 7.23295455,40.3488636 8.62840909,38.9534091 L20,27.5818182 L31.3715909,38.9534091 C32.7670455,40.3488636 35.0306818,40.3488636 36.4261364,38.9534091 L38.9534091,36.4261364 C40.3488636,35.0306818 40.3488636,32.7681818 38.9534091,31.3715909 L27.5818182,20 Z" id="Path"></path>
            </g>
        </g>
    </g>
</svg>
