<svg width="52px" height="45px" viewBox="0 0 52 45" version="1.1" xmlns="http://www.w3.org/2000/svg" xmlns:xlink="http://www.w3.org/1999/xlink">
    <!-- Generator: Sketch 63.1 (92452) - https://sketch.com -->
    <title>bars</title>
    <desc>Created with Sketch.</desc>
    <g id="Page-1" stroke="none" stroke-width="1" fill="none" fill-rule="evenodd">
        <g id="Homepage-Mobile" transform="translate(-304.000000, -32.000000)" fill="#FFFFFF" fill-rule="nonzero">
            <g id="Topfold" transform="translate(-1191.000000, -18.000000)">
                <g id="bars" transform="translate(1495.000000, 50.000000)">
                    <path d="M1.85714286,8.26530612 L50.1428571,8.26530612 C51.1685804,8.26530612 52,7.44302296 52,6.42857143 L52,1.83673469 C52,0.822283163 51.1685804,0 50.1428571,0 L1.85714286,0 C0.831419643,0 0,0.822283163 0,1.83673469 L0,6.42857143 C0,7.44302296 0.831419643,8.26530612 1.85714286,8.26530612 Z M1.85714286,26.6326531 L50.1428571,26.6326531 C51.1685804,26.6326531 52,25.8103699 52,24.7959184 L52,20.2040816 C52,19.1896301 51.1685804,18.3673469 50.1428571,18.3673469 L1.85714286,18.3673469 C0.831419643,18.3673469 0,19.1896301 0,20.2040816 L0,24.7959184 C0,25.8103699 0.831419643,26.6326531 1.85714286,26.6326531 Z M1.85714286,45 L50.1428571,45 C51.1685804,45 52,44.1777168 52,43.1632653 L52,38.5714286 C52,37.556977 51.1685804,36.7346939 50.1428571,36.7346939 L1.85714286,36.7346939 C0.831419643,36.7346939 0,37.556977 0,38.5714286 L0,43.1632653 C0,44.1777168 0.831419643,45 1.85714286,45 Z" id="Shape"></path>
                </g>
            </g>
        </g>
    </g>
</svg>
