
<svg width="39px" height="33px" viewBox="0 0 39 33" version="1.1" xmlns="http://www.w3.org/2000/svg" xmlns:xlink="http://www.w3.org/1999/xlink">
    <!-- Generator: Sketch 63.1 (92452) - https://sketch.com -->
    <title>Twitter</title>
    <desc>Created with Sketch.</desc>
    <g id="Page-1" stroke="none" stroke-width="1" fill="none" fill-rule="evenodd">
        <g id="Homepage-Desktop-(Full)" transform="translate(-1046.000000, -4387.000000)" fill="#FFFFFF">
            <g id="Footer-Content" transform="translate(399.000000, 4275.000000)">
                <g id="Contact" transform="translate(524.000000, 17.000000)">
                    <g id="Contact-Logos" transform="translate(0.000000, 91.000000)">
                        <path d="M162,7.90660888 C160.567001,8.56923077 159.024124,9.01733478 157.405705,9.21755146 C159.058461,8.18786566 160.326642,6.55514626 160.924106,4.61018418 C159.376651,5.56359697 157.666667,6.25720477 155.839937,6.62903575 C154.384046,5.01061755 152.303222,4 150.000352,4 C145.58461,4 142.002113,7.73022752 142.002113,12.3304442 C142.002113,12.983532 142.070787,13.6175515 142.208135,14.2277356 C135.558197,13.87974 129.663673,10.5666306 125.714915,5.52069339 C125.025885,6.75536295 124.632154,8.18786566 124.632154,9.71332611 C124.632154,12.6021668 126.04455,15.152546 128.191759,16.6470206 C126.882374,16.6065005 125.646241,16.227519 124.565769,15.6078007 L124.565769,15.7102925 C124.565769,19.7479957 127.324177,23.1159263 130.986793,23.8786566 C130.316077,24.0741062 129.608734,24.171831 128.8785,24.171831 C128.363444,24.171831 127.859834,24.1217768 127.372249,24.024052 C128.390914,27.3323944 131.343899,29.7421452 134.846276,29.8065005 C132.10847,32.0422535 128.656454,33.3746479 124.909139,33.3746479 C124.263603,33.3746479 123.624934,33.3365114 123,33.2602384 C126.541292,35.619935 130.748723,37 135.265188,37 C149.984328,37 158.030639,24.3076923 158.030639,13.2981582 C158.030639,12.9358613 158.023772,12.5735645 158.010037,12.2184182 C159.573516,11.0433369 160.930974,9.57746479 162,7.90660888" id="Twitter"></path>
                    </g>
                </g>
            </g>
        </g>
    </g>
</svg>
