
<svg width="39px" height="28px" viewBox="0 0 39 28" version="1.1" xmlns="http://www.w3.org/2000/svg" xmlns:xlink="http://www.w3.org/1999/xlink">
    <!-- Generator: Sketch 63.1 (92452) - https://sketch.com -->
    <title>Youtube</title>
    <desc>Created with Sketch.</desc>
    <g id="Page-1" stroke="none" stroke-width="1" fill="none" fill-rule="evenodd">
        <g id="Homepage-Desktop-(Full)" transform="translate(-1110.000000, -4389.000000)" fill="#FFFFFF">
            <g id="Footer-Content" transform="translate(399.000000, 4275.000000)">
                <g id="Contact" transform="translate(524.000000, 17.000000)">
                    <g id="Contact-Logos" transform="translate(0.000000, 91.000000)">
                        <path d="M202.47325,25.1634603 L202.472031,13.9781401 L213.009344,19.5900831 L202.47325,25.1634603 Z M225.61,12.0398987 C225.61,12.0398987 225.228531,9.29675212 224.05975,8.08877238 C222.576531,6.50259919 220.914156,6.49513485 220.152437,6.4030746 C214.694875,6 206.508531,6 206.508531,6 L206.491469,6 C206.491469,6 198.305125,6 192.847563,6.4030746 C192.084625,6.49513485 190.423469,6.50259919 188.939031,8.08877238 C187.77025,9.29675212 187.39,12.0398987 187.39,12.0398987 C187.39,12.0398987 187,15.2620074 187,18.482872 L187,21.5034434 C187,24.7255521 187.39,27.9464167 187.39,27.9464167 C187.39,27.9464167 187.77025,30.6895632 188.939031,31.897543 C190.423469,33.4837162 192.37225,33.4339539 193.24,33.5994135 C196.36,33.9054516 206.5,34 206.5,34 C206.5,34 214.694875,33.9875594 220.152437,33.5844848 C220.914156,33.4911805 222.576531,33.4837162 224.05975,31.897543 C225.228531,30.6895632 225.61,27.9464167 225.61,27.9464167 C225.61,27.9464167 226,24.7255521 226,21.5034434 L226,18.482872 C226,15.2620074 225.61,12.0398987 225.61,12.0398987 L225.61,12.0398987 Z" id="Youtube"></path>
                    </g>
                </g>
            </g>
        </g>
    </g>
</svg>
